<?xml version="1.0" encoding="UTF-8" standalone="no"?>
<svg
   xmlns:dc="http://purl.org/dc/elements/1.1/"
   xmlns:cc="http://creativecommons.org/ns#"
   xmlns:rdf="http://www.w3.org/1999/02/22-rdf-syntax-ns#"
   xmlns:svg="http://www.w3.org/2000/svg"
   xmlns="http://www.w3.org/2000/svg"
   xmlns:sodipodi="http://sodipodi.sourceforge.net/DTD/sodipodi-0.dtd"
   xmlns:inkscape="http://www.inkscape.org/namespaces/inkscape"
   version="1.1"
   id="Layer_1"
   x="0px"
   y="0px"
   viewBox="0 0 470.20001 564.59296"
   xml:space="preserve"
   sodipodi:docname="freelancing.svg"
   width="470.20001"
   height="564.59296"
   inkscape:version="1.0.2 (e86c870879, 2021-01-15, custom)"><metadata
   id="metadata932"><rdf:RDF><cc:Work
       rdf:about=""><dc:format>image/svg+xml</dc:format><dc:type
         rdf:resource="http://purl.org/dc/dcmitype/StillImage" /><dc:title></dc:title></cc:Work></rdf:RDF></metadata><defs
   id="defs930" /><sodipodi:namedview
   pagecolor="#ffffff"
   bordercolor="#666666"
   borderopacity="1"
   objecttolerance="10"
   gridtolerance="10"
   guidetolerance="10"
   inkscape:pageopacity="0"
   inkscape:pageshadow="2"
   inkscape:window-width="3840"
   inkscape:window-height="2066"
   id="namedview928"
   showgrid="false"
   inkscape:zoom="1.846"
   inkscape:cx="242.89999"
   inkscape:cy="296.49296"
   inkscape:window-x="2869"
   inkscape:window-y="-11"
   inkscape:window-maximized="1"
   inkscape:current-layer="Layer_1" />
<style
   type="text/css"
   id="style472">
	.st0{fill:#3197D6;}
	.st1{fill:#EEF2F4;}
	.st2{opacity:0.64;fill:#68CCE9;}
	.st3{fill:#282323;stroke:#000000;stroke-width:4;stroke-linecap:round;stroke-linejoin:round;stroke-miterlimit:10;}
	.st4{fill:#442C2A;}
	.st5{opacity:0.37;fill:#442C2A;}
	.st6{fill:none;stroke:#000000;stroke-width:4;stroke-linecap:round;stroke-linejoin:round;stroke-miterlimit:10;}
	.st7{fill:#151E28;}
	.st8{fill:#2A3749;}
	.st9{opacity:0.67;fill:#151E28;}
	.st10{fill:#9B2121;}
	.st11{fill:#F1534D;}
	.st12{opacity:0.24;}
	.st13{fill:#F46262;}
	.st14{fill:#FFC897;}
	.st15{fill:#E5A973;}
	.st16{fill:#607691;}
	.st17{fill:#B5B5B5;}
	.st18{opacity:0.21;fill:#7E7E7E;}
	.st19{opacity:0.66;fill:#B5B5B5;}
	.st20{fill:none;stroke:#000000;stroke-width:6;stroke-linecap:round;stroke-linejoin:round;stroke-miterlimit:10;}
	.st21{fill:#7E7E7E;}
	.st22{fill:#231A17;}
	.st23{opacity:0.34;}
	.st24{fill:none;stroke:#000000;stroke-width:3;stroke-linecap:round;stroke-linejoin:round;stroke-miterlimit:10;}
	.st25{fill:none;stroke:#000000;stroke-width:2;stroke-linecap:round;stroke-linejoin:round;stroke-miterlimit:10;}
	.st26{opacity:0.64;}
	.st27{fill:#68CCE9;}
	.st28{fill:#FFFFFF;}
</style>


<g
   id="XMLID_1207_"
   transform="translate(-257.10001,-203.50704)">
	<ellipse
   id="XMLID_1193_"
   class="st2"
   cx="492.20001"
   cy="720.79999"
   rx="235.10001"
   ry="47.299999" />
	<g
   id="XMLID_43_">
		<path
   id="XMLID_1211_"
   class="st3"
   d="m 379.5,713.2 c 3.3,-10.7 13.4,-16.4 29.8,-21.2 10.4,-3 23.6,-4.4 44.3,-8.6 10.1,-2 17.2,-6 17.2,-6 v 11.5 c 0,0 -68.5,13.5 -79.2,31.2 -5.2,8.7 -3.6,30 20.9,32.2 -7.5,1.1 -19.8,-0.8 -26.4,-7.5 -8.2,-8.3 -10.4,-19.4 -6.6,-31.6 z" />
		<path
   id="XMLID_1210_"
   class="st4"
   d="m 470.8,688.9 c 0,0 -41,7.6 -62.9,17 -19.2,8.3 -18.6,16.9 -19.1,25.7 -0.3,5.1 3.3,17.7 17.9,19.9 17.4,2.6 37.9,-0.2 64.1,-16.9 0,-40.9 0,-45.7 0,-45.7 z" />
		<path
   id="XMLID_53_"
   class="st5"
   d="m 388.8,731.6 c 0.4,-7.1 0.1,-14.1 10.1,-20.9 -0.4,2.5 -0.5,4.9 -0.6,7.4 -0.3,5.1 12,-1.5 26.6,0.6 15.2,2.3 24.2,19.7 45.9,8 0,2.5 0,5.1 0,7.8 -26.2,16.7 -46.7,19.4 -64.1,16.9 -14.6,-2.1 -18.2,-14.8 -17.9,-19.8 z" />
		<path
   id="XMLID_47_"
   class="st6"
   d="m 470.8,688.9 c 0,0 -41,7.6 -62.9,17 -19.2,8.3 -18.6,16.9 -19.1,25.7 -0.3,5.1 3.3,17.7 17.9,19.9 17.4,2.6 37.9,-0.2 64.1,-16.9 0,-40.9 0,-45.7 0,-45.7 z" />
		<path
   id="XMLID_46_"
   class="st6"
   d="m 432.8,712.4 c -3.3,1.8 -2.5,19.3 5.5,21.7" />
		<path
   id="XMLID_45_"
   class="st6"
   d="m 445.3,711.1 c -3.4,4.8 -1,16.1 5.1,18.9" />
		<path
   id="XMLID_44_"
   class="st6"
   d="m 456.8,707.1 c -3.4,4.8 -1,16.1 5.1,18.9" />
	</g>
	<path
   id="XMLID_77_"
   class="st7"
   d="m 574.8,655.3 c -21.6,15 -52.3,23.6 -84.4,23.6 -32,0 -62.8,-8.6 -84.4,-23.6 -9.9,-6.9 -26.5,-21.3 -26.5,-40.5 0,-19.2 16.6,-33.6 26.5,-40.5 21.6,-15 52.3,-23.6 84.4,-23.6 32,0 62.8,8.6 84.4,23.6 9.9,6.9 26.5,21.3 26.5,40.5 0,19.2 -16.6,33.6 -26.5,40.5 z" />
	<path
   id="XMLID_76_"
   class="st8"
   d="m 673.7,630.8 c -0.4,2 -0.8,3.9 -1.4,5.9 -15.6,56.9 -90.8,100.1 -181.3,100.1 -90.7,0 -166.1,-43.4 -181.4,-100.5 -0.4,-1.6 -0.8,-3.2 -1.1,-4.8 -0.4,-3 -0.3,-6 0.3,-9 3.7,-16.8 24.1,-26.5 45.6,-21.7 14.1,3.1 25.1,11.8 30,22.1 0.5,2.2 1.3,4.4 2.2,6.5 5.2,12 15.6,21 22.6,26 20.9,15 50.8,23.6 81.8,23.6 31.1,0 60.9,-8.6 81.8,-23.6 7.1,-5.1 17.6,-14.2 22.7,-26.2 0.8,-1.9 1.5,-4 2,-6 4.8,-10.4 15.9,-19.1 30.1,-22.3 21.5,-4.8 41.9,5 45.6,21.7 0.7,2.6 0.8,5.4 0.5,8.2 z" />
	<path
   id="XMLID_1209_"
   class="st9"
   d="m 673.2,622.4 c -0.1,-0.5 -0.2,-0.9 -0.4,-1.4 -0.3,1.6 -0.7,3.3 -1.2,4.9 C 656.2,682.8 580.9,726 490.5,726 399.8,726 324.4,682.6 309.1,625.5 c -0.2,-0.6 -0.3,-1.2 -0.5,-1.9 -0.4,2.6 -0.5,5.2 -0.1,7.7 0.3,1.6 0.7,3.2 1.1,4.8 15.3,57.1 90.7,100.5 181.4,100.5 90.5,0 165.7,-43.2 181.3,-100.1 0.5,-1.9 1,-3.9 1.4,-5.9 0.3,-2.6 0.2,-5.4 -0.5,-8.2 z" />
	<path
   id="XMLID_56_"
   class="st6"
   d="m 673.7,630.8 c -0.4,2 -0.8,3.9 -1.4,5.9 -15.6,56.9 -90.8,100.1 -181.3,100.1 -90.7,0 -166.1,-43.4 -181.4,-100.5 -0.4,-1.6 -0.8,-3.2 -1.1,-4.8 -0.4,-3 -0.3,-6 0.3,-9 3.7,-16.8 24.1,-26.5 45.6,-21.7 14.1,3.1 25.1,11.8 30,22.1 0.5,2.2 1.3,4.4 2.2,6.5 5.2,12 15.6,21 22.6,26 20.9,15 50.8,23.6 81.8,23.6 31.1,0 60.9,-8.6 81.8,-23.6 7.1,-5.1 17.6,-14.2 22.7,-26.2 0.8,-1.9 1.5,-4 2,-6 4.8,-10.4 15.9,-19.1 30.1,-22.3 21.5,-4.8 41.9,5 45.6,21.7 0.7,2.6 0.8,5.4 0.5,8.2 z" />
	<ellipse
   id="XMLID_75_"
   class="st10"
   cx="492.20001"
   cy="617.79999"
   rx="90.099998"
   ry="30.6" />
	<ellipse
   id="XMLID_31_"
   class="st6"
   cx="492.20001"
   cy="617.79999"
   rx="90.099998"
   ry="30.6" />
	<g
   id="XMLID_89_">
		<path
   id="XMLID_69_"
   class="st11"
   d="M 594.8,551 H 387.2 C 371.3,551 359,537.1 361,521.3 l 9.2,-73.5 c 2.6,-21 20.4,-36.7 41.6,-36.7 h 158.6 c 21.1,0 38.9,15.7 41.6,36.7 l 9.2,73.5 C 623,537.1 610.7,551 594.8,551 Z" />
		<path
   id="XMLID_24_"
   class="st6"
   d="M 594.8,551 H 387.2 C 371.3,551 359,537.1 361,521.3 l 9.2,-73.5 c 2.6,-21 20.4,-36.7 41.6,-36.7 h 158.6 c 21.1,0 38.9,15.7 41.6,36.7 l 9.2,73.5 C 623,537.1 610.7,551 594.8,551 Z" />
		<path
   id="XMLID_90_"
   class="st6"
   d="M 415,473.2" />
		<g
   id="XMLID_1191_">
			<line
   id="XMLID_1189_"
   class="st6"
   x1="409.70001"
   y1="473.20001"
   x2="407.70001"
   y2="498.29999" />
			<line
   id="XMLID_1192_"
   class="st6"
   x1="573.79999"
   y1="473.20001"
   x2="575.79999"
   y2="498.29999" />
		</g>
	</g>
	<g
   id="XMLID_1194_">
		<path
   id="XMLID_1202_"
   class="st11"
   d="M 594.8,551 H 387.2 C 371.3,551 359,537.1 361,521.3 l 9.2,-73.5 c 2.6,-21 20.4,-36.7 41.6,-36.7 h 158.6 c 21.1,0 38.9,15.7 41.6,36.7 l 9.2,73.5 C 623,537.1 610.7,551 594.8,551 Z" />
		<g
   id="XMLID_4_"
   class="st12">
			<path
   id="XMLID_1208_"
   class="st10"
   d="m 370.1,455.6 c 2.6,-21 20.4,-36.7 41.6,-36.7 h 158.6 c 21.1,0 38.9,15.7 41.6,36.7 l 9.1,72.9 c 0.3,-2.3 0.4,-4.7 0.1,-7.2 l -9.2,-73.5 c -2.6,-21 -20.4,-36.7 -41.6,-36.7 H 411.7 c -21.1,0 -38.9,15.7 -41.6,36.7 l -9.2,73.5 c -0.3,2.4 -0.3,4.8 0.1,7.2 z" />
			<path
   id="XMLID_8_"
   class="st10"
   d="m 420.9,418.9 c 0,0 12.3,2.2 13.3,9 0.8,5.5 0.7,9.1 2.8,11.3 2.1,2.2 7,6.7 16.9,6.7 -5.5,-5.5 -5.6,-24.8 -7.1,-24.8 -1.4,0 -5,-9.6 -5,-9.6 l -4.8,-2.2 c 0.1,0 -17.6,2.2 -16.1,9.6 z" />
			<path
   id="XMLID_10_"
   class="st10"
   d="m 552.3,418.9 c 0,0 -12.3,2.2 -13.3,9 -0.8,5.5 -0.7,9.1 -2.8,11.3 -2.1,2.1 -7,6.7 -16.9,6.7 5.5,-5.5 5.6,-24.8 7.1,-24.8 1.4,0 5,-9.6 5,-9.6 l 4.8,-2.2 c -0.1,0 17.6,2.2 16.1,9.6 z" />
		</g>
		<path
   id="XMLID_1201_"
   class="st6"
   d="M 594.8,551 H 387.2 C 371.3,551 359,537.1 361,521.3 l 9.2,-73.5 c 2.6,-21 20.4,-36.7 41.6,-36.7 h 158.6 c 21.1,0 38.9,15.7 41.6,36.7 l 9.2,73.5 C 623,537.1 610.7,551 594.8,551 Z" />
		<path
   id="XMLID_1200_"
   class="st6"
   d="M 415,473.2" />
		<g
   id="XMLID_1195_">
			<line
   id="XMLID_1199_"
   class="st6"
   x1="409.70001"
   y1="473.20001"
   x2="407.70001"
   y2="498.29999" />
			<line
   id="XMLID_1196_"
   class="st6"
   x1="573.79999"
   y1="473.20001"
   x2="575.79999"
   y2="498.29999" />
		</g>
	</g>
	<g
   id="XMLID_78_">
		<path
   id="XMLID_80_"
   class="st10"
   d="m 464.3,369.3 -32.9,-1.7 -15.4,1.7 c 0,0 -10.3,7.7 -10.3,9.8 0,2.1 1,19.2 1,19.2 0,0 24.3,3.3 26.9,5.8 2.6,2.5 18,16.9 18,16.9 l 14.9,-5.8 7.8,-20.8 z" />
		<path
   id="XMLID_72_"
   class="st11"
   d="m 458.5,356.6 h -38 c -15.3,0 -27.8,12.4 -27.8,27.8 v 0 c 0,15.3 12.4,27.8 27.8,27.8 h 5 c 8.1,0 14.6,6.5 14.6,14.6 v 1.5 c 0,9.7 7.9,17.6 17.6,17.6 v 0 c 0,0 0,-18 0,-18 0.2,0 0.4,0.2 0.4,0.4 v -1.5 c 0,-18 -14.6,-32.6 -32.6,-32.6 h -5 c -5.4,0 -9.8,-4.4 -9.8,-9.8 0,-5.4 4.4,-9.8 9.8,-9.8 h 38 z" />
		<path
   id="XMLID_81_"
   class="st6"
   d="m 456.2,415.5 c -4.6,-12.4 -16.6,-21.4 -30.6,-21.4 h -5 c -5.4,0 -9.8,-4.4 -9.8,-9.8 0,-5.4 4.4,-9.8 9.8,-9.8 h 38 v -18 h -38 c -15.3,0 -27.8,12.4 -27.8,27.8 v 0 c 0,15.3 12.4,27.8 27.8,27.8 h 5 c 8.1,0 14.6,6.5 14.6,14.6 v 1.5 c 0,9.7 7.9,17.6 17.6,17.6" />
	</g>
	<g
   id="XMLID_28_">
		<path
   id="XMLID_82_"
   class="st10"
   d="m 507.8,369.3 32.9,-1.7 15.4,1.7 c 0,0 10.3,7.7 10.3,9.8 0,2.1 -1,19.2 -1,19.2 0,0 -24.3,3.3 -26.9,5.8 -2.6,2.6 -18,16.9 -18,16.9 l -14.9,-5.8 -7.8,-20.8 z" />
		<path
   id="XMLID_79_"
   class="st11"
   d="m 513.6,356.6 h 38 c 15.3,0 27.8,12.4 27.8,27.8 v 0 c 0,15.3 -12.4,27.8 -27.8,27.8 h -5 c -8.1,0 -14.6,6.5 -14.6,14.6 v 1.5 c 0,9.7 -7.9,17.6 -17.6,17.6 v 0 c 0,0 0,-18 0,-18 -0.2,0 -0.4,0.2 -0.4,0.4 v -1.5 c 0,-18 14.6,-32.6 32.6,-32.6 h 5 c 5.4,0 9.8,-4.4 9.8,-9.8 0,-5.4 -4.4,-9.8 -9.8,-9.8 h -38 z" />
		<path
   id="XMLID_71_"
   class="st6"
   d="m 516,415.5 c 4.6,-12.4 16.6,-21.4 30.6,-21.4 h 5 c 5.4,0 9.8,-4.4 9.8,-9.8 0,-5.4 -4.4,-9.8 -9.8,-9.8 h -38 v -18 h 38 c 15.3,0 27.8,12.4 27.8,27.8 v 0 c 0,15.3 -12.4,27.8 -27.8,27.8 h -5 c -8.1,0 -14.6,6.5 -14.6,14.6 v 1.5 c 0,9.7 -7.9,17.6 -17.6,17.6" />
	</g>
	<circle
   id="XMLID_74_"
   class="st13"
   cx="487.89999"
   cy="392.70001"
   r="39" />
	<path
   id="XMLID_2426_"
   class="st11"
   d="m 450.6,381.2 c 10.8,6.9 23.6,11 37.3,11 13.7,0 26.5,-4 37.3,-11 -4.9,-16 -19.7,-27.6 -37.3,-27.6 -17.5,0.1 -32.4,11.7 -37.3,27.6 z" />
	<circle
   id="XMLID_23_"
   class="st6"
   cx="487.89999"
   cy="392.70001"
   r="39" />
	<path
   id="XMLID_70_"
   class="st14"
   d="m 487.9,415.3 v 0 c -12.7,0 -23,-10.3 -23,-23 v -17.2 c 0,-3.2 2.6,-5.8 5.8,-5.8 h 34.5 c 3.2,0 5.8,2.6 5.8,5.8 v 17.2 c -0.1,12.7 -10.4,23 -23.1,23 z" />
	<path
   id="XMLID_2425_"
   class="st15"
   d="m 505.2,369.3 h -34.5 c -3.2,0 -5.8,2.8 -5.8,6.2 v 14.1 c 7.2,2.7 14.9,4.2 23,4.2 8.1,0 15.8,-1.5 23,-4.2 v -14.1 c 0,-3.4 -2.6,-6.2 -5.7,-6.2 z" />
	<path
   id="XMLID_15_"
   class="st6"
   d="m 487.9,415.3 v 0 c -12.7,0 -23,-10.3 -23,-23 v -17.2 c 0,-3.2 2.6,-5.8 5.8,-5.8 h 34.5 c 3.2,0 5.8,2.6 5.8,5.8 v 17.2 c -0.1,12.7 -10.4,23 -23.1,23 z" />
	<path
   id="XMLID_25_"
   class="st6"
   d="M 465.7,404.2" />
	<rect
   id="XMLID_30_"
   x="491.39999"
   y="674.40002"
   class="st16"
   width="21.4"
   height="68.300003" />
	<rect
   id="XMLID_33_"
   x="491.39999"
   y="674.40002"
   class="st6"
   width="21.4"
   height="68.300003" />
	<path
   id="XMLID_54_"
   class="st6"
   d="m 386.5,629.2 c -0.9,-2.1 -1.6,-4.2 -2.2,-6.5 1.1,2.2 1.8,4.3 2.2,6.5 z" />
	<path
   id="XMLID_51_"
   class="st6"
   d="m 595.6,629 c 0.4,-2.1 1.1,-4.1 2,-6 -0.5,2.1 -1.2,4.1 -2,6 z" />
	<g
   id="XMLID_88_">
		<path
   id="XMLID_73_"
   class="st17"
   d="M 595.3,624.2 H 386.8 c -7.4,0 -13.7,-5.5 -14.7,-12.9 l -13,-101.8 c -1.1,-8.8 5.8,-16.7 14.7,-16.7 h 234.5 c 8.9,0 15.8,7.8 14.7,16.7 l -13,101.8 c -1,7.3 -7.3,12.9 -14.7,12.9 z" />
		<path
   id="XMLID_1188_"
   class="st18"
   d="m 609.9,604.9 c -0.9,7.4 -7.2,12.9 -14.7,12.9 H 386.8 c -7.4,0 -13.7,-5.5 -14.7,-12.9 L 359.3,504.6 c -0.3,1.6 -0.4,3.2 -0.2,4.9 l 13,101.8 c 0.9,7.4 7.2,12.9 14.7,12.9 h 208.5 c 7.4,0 13.7,-5.5 14.7,-12.9 l 13,-101.8 c 0.2,-1.7 0.1,-3.3 -0.2,-4.9 z" />
		<path
   id="XMLID_91_"
   class="st18"
   d="m 359.2,510.4 c 1.2,-6.8 7.2,-12.2 14.5,-12.2 h 234.5 c 7.4,0 13.3,5.3 14.5,12.2 l 0.1,-1 c 1.1,-8.8 -5.8,-16.7 -14.7,-16.7 H 373.8 c -8.9,0 -15.8,7.8 -14.7,16.7 z" />
		<path
   id="XMLID_29_"
   class="st6"
   d="M 595.3,624.2 H 386.8 c -7.4,0 -13.7,-5.5 -14.7,-12.9 l -13,-101.8 c -1.1,-8.8 5.8,-16.7 14.7,-16.7 h 234.5 c 8.9,0 15.8,7.8 14.7,16.7 l -13,101.8 c -1,7.3 -7.3,12.9 -14.7,12.9 z" />
		<path
   id="XMLID_1190_"
   class="st19"
   d="m 500.9,552.3 c -4.5,0 -8.1,-3.6 -8.1,-8.1 0,-0.3 0,-0.6 0.1,-0.9 -0.8,-0.1 -1.6,-0.2 -2.4,-0.2 -7.3,0 -13.3,6 -13.3,13.3 0,7.3 6,13.3 13.3,13.3 7.3,0 13.3,-6 13.3,-13.3 0,-1.5 -0.3,-3 -0.7,-4.4 -0.7,0.1 -1.4,0.3 -2.2,0.3 z" />
	</g>
	<g
   id="XMLID_39_">
		<path
   id="XMLID_36_"
   class="st3"
   d="m 604.1,713.2 c -3.3,-10.7 -13.4,-16.4 -29.8,-21.2 -10.4,-3 -23.6,-4.4 -44.3,-8.6 -10.1,-2 -17.2,-6 -17.2,-6 v 11.5 c 0,0 68.5,13.5 79.2,31.2 5.2,8.7 3.6,30 -20.9,32.2 7.5,1.1 19.8,-0.8 26.4,-7.5 8.2,-8.3 10.4,-19.4 6.6,-31.6 z" />
		<path
   id="XMLID_52_"
   class="st4"
   d="m 512.8,688.9 c 0,0 41,7.6 62.9,17 19.2,8.3 18.6,16.9 19.1,25.7 0.3,5.1 -3.3,17.7 -17.9,19.9 -17.4,2.6 -37.9,-0.2 -64.1,-16.9 0,-40.9 0,-45.7 0,-45.7 z" />
		<path
   id="XMLID_1212_"
   class="st5"
   d="m 594.8,731.6 c -0.4,-7.1 -0.1,-14.1 -10.1,-20.9 0.4,2.5 0.5,4.9 0.6,7.4 0.3,5.1 -3.3,17.7 -17.9,19.9 -15.2,2.3 -32.9,0.4 -54.6,-11.3 0,2.5 0,5.1 0,7.8 26.2,16.7 46.7,19.4 64.1,16.9 14.7,-2.1 18.2,-14.8 17.9,-19.8 z" />
		<path
   id="XMLID_34_"
   class="st6"
   d="m 512.8,688.9 c 0,0 41,7.6 62.9,17 19.2,8.3 18.6,16.9 19.1,25.7 0.3,5.1 -3.3,17.7 -17.9,19.9 -17.4,2.6 -37.9,-0.2 -64.1,-16.9 0,-40.9 0,-45.7 0,-45.7 z" />
		<path
   id="XMLID_37_"
   class="st6"
   d="m 550.8,712.4 c 3.3,1.8 2.5,19.3 -5.5,21.7" />
		<path
   id="XMLID_38_"
   class="st6"
   d="m 538.3,711.1 c 3.4,4.8 1,16.1 -5.1,18.9" />
		<path
   id="XMLID_40_"
   class="st6"
   d="m 526.8,707.1 c 3.4,4.8 1,16.1 -5.1,18.9" />
	</g>
	<line
   id="XMLID_83_"
   class="st20"
   x1="452.79999"
   y1="435.70001"
   x2="452.79999"
   y2="488.89999" />
	<line
   id="XMLID_84_"
   class="st20"
   x1="520.29999"
   y1="435.70001"
   x2="520.29999"
   y2="473.20001" />
	<circle
   id="XMLID_27_"
   cx="520.29999"
   cy="476.20001"
   r="8.3000002" />
	<circle
   id="XMLID_86_"
   class="st21"
   cx="520.29999"
   cy="475.20001"
   r="3.4000001" />
	<g
   id="XMLID_41_">
		<path
   id="XMLID_5_"
   class="st14"
   d="m 487.9,386.2 v 0 c -34.8,0 -63.1,-28.2 -63.1,-63.1 V 249.9 H 551 v 73.2 c 0,34.8 -28.2,63.1 -63.1,63.1 z" />
		<path
   id="XMLID_1198_"
   class="st15"
   d="m 487.9,377.5 v 0 c -34.8,0 -63.1,-28.2 -63.1,-63.1 v 8.7 c 0,34.8 28.2,63.1 63.1,63.1 v 0 c 34.8,0 63.1,-28.2 63.1,-63.1 v -8.7 c 0,34.8 -28.2,63.1 -63.1,63.1 z" />
		<path
   id="XMLID_2424_"
   class="st6"
   d="m 487.9,386.2 v 0 c -34.8,0 -63.1,-28.2 -63.1,-63.1 V 249.9 H 551 v 73.2 c 0,34.8 -28.2,63.1 -63.1,63.1 z" />
		<path
   id="XMLID_1197_"
   class="st15"
   d="m 551.5,257.2 c -0.2,-3.4 -0.4,-6.9 -0.5,-10.3 -42,2 -84.2,1.7 -126.1,-2 -0.3,3.9 -0.5,7.8 -0.8,11.7 1.9,1.7 3.9,3.5 5.8,5.2 1.6,0.8 3.7,1.9 5.6,2.9 8.4,4.4 20.1,10 31.3,12.2 4.1,0.8 8.4,1.2 12.8,1.1 18.9,-0.2 34.8,-7.7 41.5,-10.8 1,-0.5 1.8,-0.9 2.3,-1 0.4,-0.2 0.8,-0.3 1.4,-0.3 1.2,0 2.6,0.3 4.3,0.6 2.2,0.5 4.8,1 7.7,0.8 3.3,-0.2 6.3,-1.2 9.2,-3.1 1.7,-2.4 3.6,-4.7 5.5,-7 z" />
		<path
   id="XMLID_68_"
   class="st22"
   d="m 521.1,219.2 c 0,0 -50.5,-33.3 -92.3,3.9 -7.8,6.9 -10.9,16.8 -10.9,25.9 v 48.2 h 7 v -35 c 0,-2.6 1.8,-4.6 4,-4.6 v 0 c 3.6,0 23.1,10.4 39.6,13.3 24.9,4.3 47.6,-7.2 52.5,-8.9 8.4,-3 15.2,7.4 25.8,-4.3 h 0.4 c 2.2,0 4,2.1 4,4.6 v 35 h 7 v -48 C 558,237.5 544.4,207.9 521.1,219.2 Z" />
		<g
   id="XMLID_2783_"
   class="st23">
			<rect
   id="XMLID_2784_"
   x="417.79999"
   y="290.60001"
   class="st22"
   width="7"
   height="6.5999999" />
			<rect
   id="XMLID_2785_"
   x="551"
   y="290.60001"
   class="st22"
   width="7"
   height="6.5999999" />
		</g>
		<path
   id="XMLID_3_"
   class="st6"
   d="m 521.1,219.2 c 0,0 -50.5,-33.3 -92.3,3.9 -7.8,6.9 -10.9,16.8 -10.9,25.9 v 48.2 h 7 v -35 c 0,-2.6 1.8,-4.6 4,-4.6 v 0 c 3.6,0 23.1,10.4 39.6,13.3 24.9,4.3 47.6,-7.2 52.5,-8.9 8.4,-3 15.2,7.4 25.8,-4.3 h 0.4 c 2.2,0 4,2.1 4,4.6 v 35 h 7 v -48 C 558,237.5 544.4,207.9 521.1,219.2 Z" />
		<path
   id="XMLID_6_"
   class="st6"
   d="m 478.4,251.7 c 0,0 -54.2,3.5 -65.7,-25.3" />
		<path
   id="XMLID_9_"
   class="st6"
   d="m 486.1,244.8 c 0,0 -52.2,-3.3 -65.8,-32.1" />
		<path
   id="XMLID_85_"
   class="st14"
   d="m 551,289.4 v 32.8 c 7,0 12.6,-7.3 12.6,-16.4 v 0 c 0,-9.1 -5.6,-16.4 -12.6,-16.4 z" />
		<path
   id="XMLID_1205_"
   class="st15"
   d="m 551,291.2 v 29.1 c 4.1,-2.7 6.9,-8.2 6.9,-14.6 v 0 c 0,-6.3 -2.8,-11.8 -6.9,-14.5 z" />
		<path
   id="XMLID_12_"
   class="st6"
   d="m 551,289.4 v 32.8 c 7,0 12.6,-7.3 12.6,-16.4 v 0 c 0,-9.1 -5.6,-16.4 -12.6,-16.4 z" />
		<path
   id="XMLID_87_"
   class="st14"
   d="m 424.9,289.4 v 32.8 c -7,0 -12.6,-7.3 -12.6,-16.4 v 0 c -0.1,-9.1 5.6,-16.4 12.6,-16.4 z" />
		<path
   id="XMLID_1203_"
   class="st15"
   d="m 424.9,291.8 c -3.6,2.9 -6.1,8.1 -6.1,14 v 0 c 0,5.9 2.4,11.1 6.1,14 z" />
		<path
   id="XMLID_11_"
   class="st6"
   d="m 424.9,289.4 v 32.8 c -7,0 -12.6,-7.3 -12.6,-16.4 v 0 c -0.1,-9.1 5.6,-16.4 12.6,-16.4 z" />
		<path
   id="XMLID_7_"
   class="st6"
   d="m 485.3,316.1 -4.2,13.7 c 0,1.5 4.9,0.3 9.9,1.5" />
		<path
   id="XMLID_16_"
   class="st24"
   d="m 508.9,341.7 c 1.5,10.4 -11.9,19.6 -22.4,17.7" />
		<g
   id="XMLID_19_">
			<ellipse
   id="XMLID_14_"
   class="st25"
   cx="465.20001"
   cy="300"
   rx="4.1999998"
   ry="4.5" />
			<ellipse
   id="XMLID_20_"
   cx="465.20001"
   cy="300"
   rx="4.1999998"
   ry="4.5" />
			<path
   id="XMLID_17_"
   class="st24"
   d="m 450.7,290.5 c 2.1,-2.5 7,-4.2 12.8,-4.2 4.6,0 8.6,1.1 11.1,2.8" />
		</g>
		<g
   id="XMLID_13_">
			<ellipse
   id="XMLID_22_"
   class="st25"
   cx="511.20001"
   cy="300"
   rx="4.1999998"
   ry="4.5" />
			<ellipse
   id="XMLID_21_"
   cx="511.20001"
   cy="300"
   rx="4.1999998"
   ry="4.5" />
			<path
   id="XMLID_18_"
   class="st24"
   d="m 525.7,290.5 c -2.1,-2.5 -7,-4.2 -12.8,-4.2 -4.6,0 -8.6,1.1 -11.1,2.8" />
		</g>
	</g>
</g>



</svg>
